<svg width="28" height="28" viewBox="0 0 28 28" fill="none" xmlns="http://www.w3.org/2000/svg">
<path fill-rule="evenodd" clip-rule="evenodd" d="M14 0.666733C21.364 0.666733 27.3334 6.63614 27.3334 14.0001C27.3334 21.3634 21.364 27.3334 14 27.3334C6.63609 27.3334 0.666687 21.3634 0.666687 14.0001C0.666687 6.63614 6.63609 0.666733 14 0.666733Z" fill="#2775CA"/>
<path fill-rule="evenodd" clip-rule="evenodd" d="M11.5014 23.2703C11.5014 23.584 11.2558 23.7621 10.9524 23.6674C6.92105 22.3814 3.99817 18.6012 3.99817 14.1409C3.99817 9.68075 6.92105 5.90045 10.9524 4.61438C11.2558 4.52029 11.5014 4.69787 11.5014 5.0115V5.78575C11.5014 5.99454 11.3395 6.24029 11.1406 6.30832C7.95106 7.47954 5.6662 10.5436 5.6662 14.1356C5.6662 17.7276 7.95106 20.7923 11.1406 21.9629C11.3395 22.0362 11.5014 22.2765 11.5014 22.4861V23.2703Z" fill="white"/>
<path fill-rule="evenodd" clip-rule="evenodd" d="M14.8312 20.3892C14.8312 20.6195 14.643 20.8077 14.413 20.8077H13.5815C13.3515 20.8077 13.1633 20.6195 13.1633 20.3892V19.0717C11.3436 18.8261 10.455 17.8063 10.2143 16.4208C10.1724 16.1852 10.3606 15.971 10.6012 15.971H11.5528C11.7515 15.971 11.9189 16.1123 11.9607 16.3107C12.1386 17.1369 12.6144 17.7696 14.073 17.7696C15.1501 17.7696 15.9138 17.1683 15.9138 16.2693C15.9138 15.3696 15.4639 15.0299 13.8848 14.7683C11.5528 14.4546 10.4497 13.7486 10.4497 11.9186C10.4497 10.5069 11.5165 9.409 13.1686 9.17355V7.88203C13.1686 7.65188 13.3569 7.46355 13.5868 7.46355H14.4183C14.6483 7.46355 14.8365 7.65188 14.8365 7.88203V9.21022C16.1803 9.45113 17.0325 10.214 17.3098 11.4793C17.3619 11.7202 17.1738 11.9446 16.9281 11.9446H16.0495C15.8613 11.9446 15.7045 11.819 15.6471 11.6361C15.4118 10.8313 14.8365 10.4863 13.8377 10.4863C12.7345 10.4863 12.1645 11.0195 12.1645 11.767C12.1645 12.5566 12.4889 12.9537 14.1831 13.1999C16.473 13.5136 17.655 14.167 17.655 16.1178C17.655 17.5974 16.5568 18.7948 14.8365 19.0717V20.3892H14.8312Z" fill="white"/>
<path fill-rule="evenodd" clip-rule="evenodd" d="M17.0486 23.6675C16.7455 23.7622 16.4996 23.584 16.4996 23.2703V22.4967C16.4996 22.2665 16.6408 22.0523 16.8604 21.9735C20.0499 20.8023 22.3348 17.7382 22.3348 14.1462C22.3348 10.5543 20.0499 7.49016 16.8604 6.31895C16.6617 6.24561 16.4996 6.00531 16.4996 5.79576V5.02213C16.4996 4.70849 16.7455 4.52561 17.0486 4.6244C21.0799 5.91122 24.0028 9.69138 24.0028 14.1515C23.9978 18.6011 21.0799 22.3761 17.0486 23.6675Z" fill="white"/>
</svg>
